<?xml version="1.0" standalone="no"?>
<!DOCTYPE svg PUBLIC "-//W3C//DTD SVG 20010904//EN"
 "http://www.w3.org/TR/2001/REC-SVG-20010904/DTD/svg10.dtd">
<svg version="1.0" xmlns="http://www.w3.org/2000/svg"
 width="697.000000pt" height="697.000000pt" viewBox="0 0 697.000000 697.000000"
 preserveAspectRatio="xMidYMid meet">
<metadata>
Created by potrace 1.11, written by Peter Selinger 2001-2013
</metadata>
<g transform="translate(0.000000,697.000000) scale(0.100000,-0.100000)"
fill="#000000" stroke="none">
<path d="M3849 6858 c-126 -97 -169 -126 -229 -154 -30 -13 -67 -31 -81 -39
-47 -26 -113 -44 -204 -55 -49 -6 -112 -15 -140 -20 -27 -5 -76 -9 -108 -9
-37 -1 -79 -10 -118 -26 -77 -31 -125 -40 -134 -26 -3 6 -12 8 -18 4 -7 -4
-31 -13 -54 -19 -42 -11 -48 -8 -44 19 3 18 -68 -12 -90 -39 -7 -8 -42 -35
-78 -60 -36 -24 -97 -66 -136 -93 -97 -69 -108 -77 -208 -142 -48 -32 -116
-83 -151 -113 -34 -30 -82 -70 -107 -87 -24 -18 -45 -36 -47 -41 -2 -4 -9 -8
-16 -8 -7 0 -23 -11 -36 -25 -21 -23 -71 -59 -155 -115 -32 -21 -153 -138
-192 -186 -52 -63 -83 -113 -132 -214 -53 -109 -110 -213 -156 -285 -17 -27
-37 -65 -45 -83 -7 -18 -18 -36 -25 -40 -6 -4 -31 -34 -54 -67 -23 -33 -67
-94 -97 -135 -73 -101 -114 -170 -159 -269 -20 -46 -50 -102 -66 -126 -16 -24
-36 -58 -43 -77 -8 -18 -23 -44 -34 -58 -34 -43 -91 -192 -126 -325 -43 -168
-50 -220 -47 -341 2 -87 -1 -136 -12 -175 -9 -30 -20 -92 -26 -139 -6 -47 -15
-109 -21 -139 -6 -30 -9 -86 -6 -125 2 -39 9 -165 15 -281 16 -302 48 -441
139 -598 50 -85 60 -97 79 -92 30 7 43 -20 43 -88 0 -51 -2 -55 -27 -62 -34
-8 -113 -78 -135 -118 -26 -48 -22 -108 12 -183 49 -110 101 -315 165 -659 16
-85 48 -199 81 -293 9 -23 35 -66 57 -95 77 -97 111 -165 126 -252 7 -38 19
-92 26 -120 7 -27 19 -69 25 -92 l11 -43 443 0 443 0 1 53 c0 28 1 68 2 87 1
19 -3 96 -10 170 -7 74 -13 147 -15 162 -1 15 -7 34 -14 42 -7 9 -11 21 -9 28
2 6 -1 35 -7 62 -9 39 -16 50 -28 48 -18 -3 -24 23 -7 33 18 11 10 25 -15 25
-18 0 -23 -4 -19 -15 4 -8 1 -15 -4 -15 -7 0 -9 19 -6 53 3 37 2 46 -5 32 -5
-11 -10 -39 -10 -62 -1 -36 -4 -43 -20 -43 -25 0 -34 15 -33 52 0 18 -3 26
-10 22 -17 -11 -118 -12 -118 -2 0 5 -15 6 -34 3 -31 -6 -34 -4 -44 24 -8 21
-18 31 -31 31 -12 0 -21 6 -22 13 -1 6 -2 19 -3 27 -2 8 -3 28 -4 43 -2 23 -6
27 -21 22 -22 -7 -51 18 -51 44 0 10 -11 28 -24 40 -13 13 -27 34 -30 47 -7
27 -26 23 -26 -5 0 -10 -7 -24 -15 -31 -21 -17 -58 15 -49 42 3 10 2 18 -3 17
-25 -4 -43 3 -43 17 0 13 7 15 30 11 27 -6 30 -4 30 21 0 25 -20 70 -20 46 0
-20 -30 -24 -60 -9 -37 19 -50 19 -50 0 0 -9 -7 -18 -15 -21 -24 -9 -19 -37 5
-29 15 5 18 3 14 -9 -5 -12 -2 -15 10 -10 15 6 17 0 14 -45 -2 -28 -7 -52 -13
-53 -5 -1 -20 14 -33 33 -13 19 -30 33 -39 31 -10 -2 -13 2 -9 16 4 11 0 24
-9 32 -8 7 -15 22 -15 34 0 16 -2 18 -9 7 -6 -9 -6 -24 0 -38 6 -16 5 -30 -3
-43 -9 -14 -9 -22 1 -34 11 -13 11 -19 1 -31 -6 -8 -10 -20 -7 -27 2 -7 0 -25
-4 -40 -6 -21 -4 -30 8 -37 18 -10 9 -31 -13 -31 -8 0 -14 -4 -14 -10 0 -5 6
-10 14 -10 20 0 30 -18 18 -33 -16 -20 -26 -61 -13 -53 6 4 11 0 11 -9 0 -8
-7 -18 -15 -21 -8 -4 -15 -16 -14 -28 0 -20 1 -20 8 -2 7 19 8 19 15 1 5 -13
2 -24 -9 -32 -13 -8 -15 -20 -10 -42 4 -17 2 -31 -3 -31 -5 0 -16 39 -26 87
-9 49 -21 106 -27 128 -5 22 -11 47 -12 55 -2 8 -8 40 -15 70 -34 158 -43 229
-48 380 -5 156 -4 164 12 142 9 -12 21 -22 27 -22 8 0 7 4 0 11 -9 9 -8 15 3
26 11 12 12 18 3 29 -30 36 25 59 69 28 12 -8 22 -12 22 -9 0 4 21 -5 46 -20
25 -15 56 -28 67 -30 84 -9 128 -18 133 -26 3 -5 22 -9 42 -9 20 0 55 -5 77
-11 61 -16 120 -28 225 -44 123 -19 598 -18 790 2 74 8 150 15 168 16 17 0 32
5 32 9 0 18 34 6 63 -24 28 -27 30 -32 15 -41 -14 -10 -14 -14 7 -47 17 -26
22 -48 20 -76 -4 -43 -32 -181 -39 -193 -3 -4 -6 -31 -7 -60 -2 -29 -8 -58
-13 -65 -13 -13 -14 -83 -2 -109 5 -11 3 -23 -5 -34 -11 -13 -11 -17 -1 -20
17 -6 15 -23 -3 -23 -20 0 -20 -39 0 -46 8 -4 15 -12 15 -20 0 -18 -9 -18 -32
3 -17 15 -18 15 -18 -5 0 -12 5 -22 12 -22 6 0 0 -10 -13 -21 -16 -15 -20 -23
-11 -26 17 -6 15 -33 -2 -33 -9 0 -12 -7 -9 -21 5 -19 -28 -64 -40 -53 -8 8
-15 -98 -7 -125 3 -14 15 -28 25 -30 17 -3 18 -1 6 13 -7 9 -10 16 -6 16 4 0
13 -7 20 -16 6 -10 23 -18 36 -19 13 0 39 -9 57 -18 18 -10 36 -16 41 -13 18
11 82 -16 93 -39 6 -14 19 -27 28 -30 17 -6 40 -71 40 -114 0 -12 4 -21 9 -21
12 0 9 -33 -4 -43 -5 -4 84 -7 198 -6 170 0 209 3 214 15 3 8 14 14 24 14 12
0 16 5 13 15 -5 11 1 15 19 15 14 0 29 5 32 10 10 17 78 11 108 -9 15 -10 35
-28 43 -40 11 -15 26 -21 55 -21 45 0 49 11 14 46 -14 14 -25 27 -25 30 0 2
-12 17 -27 33 -45 46 -88 103 -114 151 -13 24 -41 67 -61 94 -34 46 -35 51
-22 72 14 20 13 23 -2 32 -15 9 -16 13 -5 26 11 13 11 19 1 31 -7 9 -9 19 -5
23 4 4 10 1 12 -5 5 -15 33 -17 33 -3 0 6 -4 10 -9 10 -6 0 -7 15 -4 34 4 26
0 41 -18 65 -21 28 -24 30 -31 14 -7 -14 -7 -13 -4 6 3 16 -3 30 -20 46 -13
12 -24 31 -24 42 0 11 -6 26 -14 32 -8 7 -14 32 -14 66 0 56 14 77 20 28 4
-34 22 -33 26 1 2 17 -4 29 -17 38 -12 7 -21 18 -21 25 0 7 -4 13 -10 13 -11
0 -4 49 12 92 6 16 17 28 26 28 13 0 13 -2 -2 -18 -15 -17 -15 -22 -2 -53 9
-19 16 -28 17 -21 2 16 4 24 13 42 8 19 2 149 -9 173 -4 10 -2 23 4 31 9 10
10 50 5 138 -9 169 -9 169 -23 178 -8 4 -11 12 -7 18 3 5 -1 15 -9 22 -11 9
-15 9 -15 1 0 -7 -4 -10 -10 -6 -5 3 -7 12 -3 20 3 8 0 15 -6 15 -6 0 -17 13
-25 29 -17 31 -56 49 -56 25 0 -8 -4 -14 -9 -14 -5 0 -13 -9 -16 -21 -4 -11
-9 -18 -11 -16 -6 6 47 158 126 362 34 88 70 183 81 212 34 88 101 124 203
109 101 -16 144 -69 225 -281 24 -60 53 -135 66 -165 14 -30 36 -86 51 -125
15 -38 56 -126 92 -195 77 -149 122 -265 178 -455 14 -49 29 -92 33 -95 3 -3
16 -26 28 -52 13 -27 27 -48 33 -48 13 0 13 27 0 35 -5 3 -10 16 -10 28 0 12
-9 47 -20 77 -12 30 -27 87 -35 125 -8 39 -20 95 -26 125 -6 30 -15 64 -19 75
-16 42 -32 155 -26 192 4 25 1 46 -8 63 -9 14 -31 55 -50 93 -19 37 -43 82
-54 100 -11 17 -23 43 -27 57 -4 14 -20 52 -35 85 -56 119 -120 368 -120 465
0 41 4 52 30 74 17 14 50 30 73 36 23 6 87 24 142 39 55 16 132 34 170 40 39
7 99 18 135 26 273 56 1005 79 1295 40 66 -9 135 -16 154 -15 40 0 202 -26
249 -41 17 -6 36 -19 42 -28 14 -28 70 -382 70 -449 0 -19 10 -70 22 -115 19
-73 22 -109 22 -337 1 -166 -4 -286 -12 -345 -16 -106 -110 -557 -123 -593 -5
-13 -19 -68 -30 -121 -11 -53 -36 -159 -55 -236 -43 -169 -47 -187 -72 -293
l-20 -82 43 0 42 0 17 87 c10 49 35 160 56 248 40 169 75 325 85 388 3 21 15
65 26 99 11 34 31 130 44 213 25 154 47 240 84 333 34 86 79 271 91 372 5 52
17 122 25 155 9 33 25 98 36 144 11 46 21 87 23 90 3 3 16 51 31 106 21 79 27
131 31 245 3 80 10 177 16 215 18 118 20 174 9 206 -7 21 -7 37 -1 50 14 26
15 448 2 529 -6 36 -11 108 -11 160 1 107 -26 231 -67 311 -13 27 -24 53 -24
59 0 5 -11 33 -24 60 -14 28 -34 81 -46 118 -12 37 -29 85 -39 107 -10 22 -28
66 -41 97 -12 32 -34 77 -49 100 -32 51 -161 311 -161 326 0 5 -7 16 -16 23
-9 7 -28 38 -41 69 -14 30 -39 74 -54 97 -16 23 -29 49 -29 57 0 23 -16 20
-35 -6 -15 -22 -17 -22 -26 -5 -8 14 -14 16 -25 6 -16 -13 -2 -39 21 -39 8 0
17 -15 20 -32 4 -18 16 -43 27 -54 40 -44 124 -214 173 -349 18 -49 50 -128
72 -175 22 -47 50 -112 63 -145 13 -33 29 -67 35 -75 7 -8 21 -37 31 -65 10
-27 28 -66 40 -85 12 -19 30 -62 40 -95 9 -33 21 -65 27 -72 5 -7 6 -16 3 -21
-3 -5 -2 -22 3 -38 7 -25 4 -31 -21 -47 -30 -18 -33 -37 -8 -45 9 -3 11 1 7
12 -4 10 -1 16 7 16 23 0 25 -12 5 -33 -25 -28 -24 -40 4 -31 22 7 22 6 3 -15
-19 -21 -31 -20 -31 2 0 6 -11 17 -24 23 -24 12 -50 61 -78 148 -9 28 -18 45
-20 39 -2 -6 14 -67 36 -135 34 -104 41 -139 45 -228 2 -58 13 -145 25 -195
13 -58 22 -139 25 -228 4 -130 3 -140 -16 -159 l-21 -21 -18 24 c-10 13 -21
38 -24 54 -8 41 -52 185 -82 270 -18 50 -26 98 -29 170 -7 137 -43 262 -125
431 -27 56 -49 106 -49 112 0 6 -9 27 -20 47 -11 20 -20 45 -20 56 0 13 -10
24 -30 30 -30 11 -39 32 -19 44 6 4 13 -3 16 -15 4 -16 8 -18 14 -8 7 10 9 10
9 1 0 -7 7 -13 15 -13 8 0 15 -4 15 -10 0 -5 5 -10 10 -10 13 0 13 37 1 44 -5
4 -12 24 -16 46 -4 22 -11 42 -16 46 -5 3 -9 14 -9 24 0 11 -11 27 -25 36 -14
9 -28 27 -31 40 -7 27 -31 39 -49 24 -9 -8 -15 -8 -20 0 -3 5 -1 10 5 10 15 0
8 42 -7 48 -8 2 -13 -6 -13 -22 0 -29 -3 -30 -28 -17 -30 16 -48 -9 -55 -79
-7 -62 8 -130 35 -167 5 -6 23 -58 39 -114 22 -77 30 -131 35 -223 3 -67 7
-132 9 -146 2 -14 15 -108 29 -210 24 -178 54 -342 75 -405 8 -24 41 -246 41
-277 0 -13 -42 -10 -260 19 -188 24 -236 26 -575 27 -495 1 -896 -31 -1080
-87 -171 -53 -244 -76 -345 -113 -105 -38 -105 -38 -270 -38 -126 -1 -181 3
-235 17 -76 19 -155 54 -168 75 -4 6 -13 12 -19 12 -6 0 -26 11 -44 25 -18 14
-40 25 -48 25 -9 0 -16 6 -16 13 0 6 -28 21 -62 31 -35 11 -85 30 -113 42 -70
30 -146 53 -260 76 -80 16 -408 17 -460 1 -22 -7 -83 -17 -135 -23 -52 -7
-138 -21 -190 -31 -52 -11 -126 -24 -165 -29 -247 -32 -305 -40 -350 -50 -85
-19 -238 -41 -244 -34 -3 3 2 11 12 18 13 10 17 28 17 82 0 38 9 123 21 189
11 66 25 165 29 220 9 102 24 207 40 280 5 22 12 65 16 95 7 63 28 134 51 170
9 14 50 59 92 101 70 70 102 105 141 153 10 13 15 49 16 133 0 64 5 118 11
121 5 4 15 22 21 41 7 18 20 40 29 47 19 15 258 134 268 134 4 0 26 19 49 43
82 80 245 152 576 251 126 37 295 71 405 81 39 4 113 13 165 22 59 10 152 15
245 14 83 0 219 -1 303 0 86 0 178 -5 210 -12 31 -7 63 -12 70 -10 19 3 14
-17 -5 -22 -10 -3 -2 -5 17 -6 20 0 40 -5 45 -9 14 -12 86 -35 91 -29 6 5 -54
42 -85 52 -24 7 -19 22 12 34 26 10 167 -10 247 -34 53 -16 210 -91 220 -106
3 -3 16 -10 30 -14 72 -22 302 -195 320 -240 7 -15 9 -16 9 -3 1 9 13 26 29
37 17 13 23 24 17 28 -6 5 -36 27 -66 51 -31 23 -61 42 -66 42 -6 0 -13 6 -16
13 -2 6 -22 21 -43 33 -22 11 -55 30 -74 41 -19 11 -47 23 -63 27 -56 14 -113
104 -74 120 9 3 8 8 -4 18 -26 21 -7 58 31 58 16 0 30 -4 30 -8 0 -4 15 -7 33
-7 17 0 41 -2 52 -6 11 -4 47 -3 80 2 34 4 64 4 69 -1 5 -5 19 -5 33 1 14 5
28 7 31 5 4 -2 50 -7 102 -10 52 -3 153 -11 225 -18 160 -14 463 -5 562 16 85
19 133 37 116 43 -7 3 -13 11 -13 19 0 15 12 19 23 7 4 -3 29 -7 57 -8 27 -1
55 -7 62 -13 9 -7 19 -7 28 -2 8 6 13 10 10 11 -3 0 -14 2 -25 4 -11 2 -21 9
-23 14 -2 6 -19 11 -38 11 -19 0 -34 5 -34 10 0 6 -5 10 -11 10 -6 0 -9 -7 -6
-15 5 -11 1 -12 -20 -4 -22 8 -30 6 -47 -12 -18 -18 -18 -21 -3 -16 9 4 17 2
17 -3 0 -6 -15 -10 -33 -10 -23 0 -34 5 -34 15 0 8 6 15 14 15 18 0 16 17 -3
24 -8 3 -12 10 -9 16 6 10 4 11 -42 14 -16 1 -38 5 -50 10 -18 6 -23 4 -23 -9
0 -11 7 -15 22 -13 31 4 33 -17 3 -30 -31 -14 -38 -15 -30 -3 9 16 -12 22 -24
7 -8 -10 -48 -14 -153 -15 -78 -1 -145 -4 -150 -7 -18 -11 -93 -11 -100 0 -5
8 -11 7 -20 -2 -9 -9 -62 -12 -192 -12 -150 0 -182 3 -197 16 -24 22 -46 8
-24 -16 12 -14 13 -20 4 -26 -7 -4 -10 -3 -5 4 11 18 -35 19 -84 2 -49 -17
-80 -16 -80 4 0 13 58 38 115 50 17 4 66 17 110 30 72 22 250 46 333 46 l31 0
3 77 3 78 40 6 c22 4 136 10 254 15 l214 7 30 28 c16 16 33 26 37 24 5 -3 19
-1 33 4 31 12 61 -7 55 -35 -3 -17 -11 -19 -60 -16 -33 2 -59 -1 -63 -7 -4 -8
15 -11 60 -11 46 0 79 -6 107 -20 23 -11 46 -20 51 -20 6 0 2 9 -8 20 -10 11
-26 20 -36 20 -19 0 -26 16 -28 64 0 17 -6 33 -11 36 -6 4 -8 14 -4 23 4 12
-1 20 -17 26 l-24 10 23 0 c12 1 25 2 30 2 4 1 12 -9 19 -22 7 -13 17 -24 22
-24 5 0 13 -3 17 -7 4 -5 3 -8 -3 -8 -6 0 -9 -9 -6 -20 3 -11 10 -20 15 -20 5
0 6 9 3 20 -5 15 -2 20 11 20 12 0 14 3 6 13 -5 6 -12 21 -14 32 -2 11 -8 20
-13 21 -6 0 -26 8 -45 16 -29 13 -51 14 -120 7 -123 -12 -225 -27 -305 -44
-38 -8 -120 -23 -181 -34 -63 -11 -136 -31 -166 -45 -60 -29 -144 -56 -168
-55 -8 0 -4 6 10 12 14 6 31 18 39 25 7 7 22 10 32 7 13 -4 19 -2 19 9 0 11
-15 17 -50 22 -27 4 -50 10 -50 14 0 5 -3 16 -7 26 -4 12 -2 15 8 12 8 -3 13
-11 12 -17 -5 -19 17 -12 25 9 6 16 92 80 108 80 13 0 114 95 114 108 0 11 3
12 14 3 18 -16 46 11 46 45 l0 24 -37 -22 c-108 -61 -213 -111 -293 -138 -34
-11 -251 -47 -340 -56 -25 -2 -74 -9 -110 -14 -36 -6 -96 -12 -135 -14 -70 -4
-95 -10 -127 -27 -30 -16 -41 -11 -34 16 8 30 0 32 -23 7 -9 -10 -29 -25 -46
-34 -40 -21 -218 -78 -243 -78 -11 0 -25 -7 -32 -14 -15 -20 -96 -50 -109 -42
-15 9 -3 34 20 41 11 4 40 24 65 46 25 21 50 39 56 39 15 0 137 63 185 96 53
36 113 107 163 194 35 61 44 87 48 138 5 69 -8 99 -27 63 -15 -28 -61 -29 -68
-1 -6 23 -23 27 -23 5 0 -8 5 -15 11 -15 5 0 7 -5 3 -11 -4 -8 -9 -8 -17 0
-17 17 -29 13 -69 -22 -41 -36 -158 -177 -158 -190 0 -18 -105 -117 -124 -117
-15 0 -17 5 -12 33 3 18 10 79 16 136 8 85 15 112 39 155 35 60 243 274 356
366 44 35 103 87 132 115 61 59 73 67 136 86 26 7 47 17 47 21 0 12 35 9 48
-4 6 -6 15 -8 19 -4 4 4 0 12 -9 17 -15 8 -15 12 -3 36 8 14 19 30 27 34 14 9
38 -7 38 -27 0 -22 18 -26 47 -10 24 12 25 15 11 21 -15 6 -13 12 16 42 34 37
56 37 56 2 0 -10 5 -19 11 -19 6 0 9 -6 6 -14 -5 -14 10 -36 25 -36 4 0 8 9 8
19 0 21 17 37 28 26 3 -3 0 -11 -8 -16 -11 -8 -12 -12 -2 -16 6 -2 12 -11 12
-18 0 -10 5 -11 25 -2 14 7 25 15 25 19 0 4 7 5 15 2 20 -8 19 6 -2 22 -17 13
-17 15 0 28 9 7 17 17 17 21 0 4 8 14 18 21 9 7 18 17 18 23 3 22 4 23 18 11
8 -6 12 -18 9 -26 -4 -10 2 -14 20 -14 14 0 29 -5 32 -10 4 -6 16 -8 28 -5 16
5 18 4 8 -3 -19 -14 -6 -42 20 -42 15 0 19 -4 15 -16 -3 -9 -6 -18 -6 -20 0
-2 -9 -4 -20 -4 -11 0 -20 -5 -20 -11 0 -7 7 -8 18 -4 36 15 52 17 52 7 0 -6
-5 -14 -11 -18 -6 -3 -8 -17 -5 -30 4 -13 1 -33 -6 -44 -9 -14 -10 -22 -1 -31
8 -8 13 -5 18 12 8 26 25 40 37 33 16 -10 8 -32 -23 -65 -30 -32 -35 -44 -46
-102 -3 -15 -14 -34 -25 -41 -11 -8 -30 -36 -43 -61 -13 -29 -25 -42 -28 -34
-4 14 -9 6 -37 -67 -12 -30 -32 -27 -40 7 -4 15 -8 20 -13 12 -4 -7 -5 -24 -1
-38 4 -16 2 -25 -6 -25 -8 0 -11 -9 -8 -25 6 -27 1 -30 -21 -16 -15 10 -23 97
-11 116 4 6 2 20 -5 32 -10 19 -13 10 -24 -67 -7 -49 -16 -102 -21 -117 -7
-23 -8 -18 -9 29 -1 31 -6 60 -11 63 -6 4 -8 10 -5 15 3 4 2 16 -1 25 -5 13
-8 14 -15 3 -13 -19 -10 -78 5 -121 8 -20 10 -39 6 -42 -4 -3 -11 -25 -15 -51
-6 -43 -7 -45 -24 -30 -14 13 -17 27 -14 57 6 48 -5 129 -17 129 -4 0 -8 -21
-9 -47 0 -27 -5 -79 -10 -118 -8 -52 -7 -72 2 -78 8 -6 5 -7 -7 -3 -12 4 -25
-1 -37 -15 -23 -26 -24 -36 -5 -55 21 -20 29 -17 16 5 -13 26 -13 31 3 31 14
0 47 -31 47 -43 0 -4 -5 -7 -11 -7 -6 0 -25 -11 -42 -24 -18 -14 -44 -28 -59
-31 -16 -4 -28 -11 -28 -15 0 -4 -15 -11 -32 -15 -18 -4 -35 -8 -38 -9 -44
-11 -131 -51 -117 -54 10 -2 31 1 46 8 32 13 70 15 153 8 44 -4 85 3 173 27
63 17 117 34 121 38 4 4 15 7 25 7 10 0 20 8 23 18 3 9 20 25 36 34 17 10 33
25 37 35 11 30 129 135 175 155 15 7 29 22 32 34 4 14 20 25 48 34 40 12 94
32 178 66 19 8 57 15 83 17 43 3 50 1 62 -22 14 -25 14 -25 15 -3 0 17 6 22
25 22 14 0 25 -5 25 -11 0 -5 4 -8 10 -4 8 5 -3 24 -37 60 -10 10 -9 16 2 25
23 19 8 29 -30 23 -20 -3 -35 -1 -35 4 0 6 12 8 28 6 25 -4 23 -1 -23 41 -27
25 -58 48 -67 51 -10 4 -18 10 -18 15 0 5 -17 14 -37 21 -37 12 -151 83 -165
104 -5 5 -5 22 -2 37 6 28 -12 109 -24 106 -4 -1 -17 4 -29 12 -25 16 -30 39
-11 58 9 9 9 12 1 12 -7 0 -15 -4 -18 -10 -10 -16 -28 -12 -21 5 3 8 0 14 -6
12 -5 -1 -12 5 -13 14 -2 9 -15 28 -30 43 l-28 28 6 -28 c4 -25 4 -26 -8 -11
-14 20 -31 22 -39 5 -3 -7 -4 -1 -1 14 3 15 1 30 -5 33 -5 3 -10 1 -10 -4 0
-6 -4 -11 -10 -11 -5 0 -10 6 -10 13 0 6 -22 22 -50 35 -27 12 -52 27 -56 33
-4 8 -9 7 -15 -2 -6 -10 -12 -8 -27 9 -11 12 -24 22 -30 22 -6 0 -12 3 -14 8
-4 9 -52 38 -108 63 -25 12 -62 29 -83 40 -35 17 -63 19 -302 19 l-264 0 -82
-62z m641 28 c0 -2 -7 -6 -15 -10 -8 -3 -15 -1 -15 4 0 6 7 10 15 10 8 0 15
-2 15 -4z m-333 -142 c5 -14 -27 -84 -83 -184 -15 -27 -54 -60 -70 -60 -8 0
-19 -9 -26 -20 -7 -11 -17 -20 -23 -20 -5 0 -34 -23 -64 -50 -29 -28 -57 -50
-62 -50 -4 0 -19 -10 -32 -22 -13 -13 -32 -30 -43 -39 -10 -9 -36 -36 -58 -60
-35 -40 -39 -42 -51 -25 -16 21 -35 13 -35 -16 0 -19 -1 -20 -25 -4 -14 9 -25
12 -25 7 0 -5 6 -11 13 -14 9 -3 8 -9 -5 -23 -9 -10 -23 -35 -32 -54 -9 -19
-30 -57 -46 -85 -16 -27 -35 -61 -43 -75 -8 -14 -23 -52 -33 -85 -10 -33 -24
-64 -31 -68 -7 -4 -13 -12 -13 -18 0 -5 -18 -38 -39 -72 l-40 -62 -11 30 c-9
24 -8 31 4 41 9 6 16 18 16 27 0 9 4 18 9 21 5 3 12 18 15 32 4 15 20 46 37
70 16 23 29 51 29 62 0 11 11 30 24 43 32 33 41 80 22 116 -17 32 -22 10 -6
-31 7 -20 6 -24 -5 -19 -9 3 -15 -1 -15 -10 0 -9 -8 -18 -17 -21 -19 -6 -43
-49 -43 -77 0 -10 -9 -21 -20 -24 -18 -6 -24 -16 -22 -36 1 -4 -8 -15 -18 -24
-16 -14 -20 -15 -20 -4 0 8 -3 24 -6 36 -5 17 -1 23 18 28 17 4 24 14 26 33 1
14 6 30 11 35 5 5 7 15 5 22 -3 7 -1 16 5 20 6 3 11 2 11 -4 0 -5 12 2 28 16
17 16 22 27 15 30 -9 3 -9 10 -1 29 6 13 9 27 5 30 -7 8 -47 -33 -47 -48 0 -7
-13 -20 -29 -30 -17 -9 -31 -26 -33 -40 -2 -15 -10 -23 -23 -23 -26 0 -33 48
-11 71 13 13 23 64 13 64 -2 0 -17 -25 -32 -56 -28 -54 -28 -57 -10 -70 10 -8
17 -15 14 -17 -2 -1 -12 -8 -21 -15 -14 -11 -16 -11 -11 6 3 12 -2 22 -12 26
-22 8 -35 -1 -35 -25 0 -27 -20 -24 -21 4 0 12 -2 29 -3 37 -4 21 11 146 25
200 26 106 56 140 221 255 90 63 218 113 398 155 48 11 103 31 115 41 5 5 18
9 30 9 11 1 38 9 60 20 22 11 47 20 55 20 8 0 35 14 60 30 53 34 59 35 67 14z
m673 -49 c-7 -8 -16 -12 -21 -9 -5 3 -12 -2 -15 -10 -3 -9 -11 -16 -17 -16 -6
0 0 11 13 25 26 28 62 37 40 10z m-132 -77 c-2 -6 -10 -14 -16 -16 -7 -2 -10
2 -6 12 7 18 28 22 22 4z m72 2 c0 -5 -8 -10 -18 -10 -10 0 -24 -6 -31 -12
-11 -10 -10 -8 0 10 14 22 49 31 49 12z m227 -6 c-3 -3 -12 -4 -19 -1 -8 3 -5
6 6 6 11 1 17 -2 13 -5z m-561 -41 c-10 -10 -19 5 -10 18 6 11 8 11 12 0 2 -7
1 -15 -2 -18z m84 7 c0 -5 -2 -10 -4 -10 -3 0 -8 5 -11 10 -3 6 -1 10 4 10 6
0 11 -4 11 -10z m-427 -67 c-7 -3 -13 -13 -13 -24 0 -10 -4 -19 -10 -19 -17 0
-11 32 7 46 10 7 20 10 23 7 3 -3 -1 -8 -7 -10z m937 -28 c0 -8 -6 -15 -14
-15 -20 0 -29 17 -14 23 22 9 28 7 28 -8z m-1010 -81 c0 -2 -7 -4 -15 -4 -8 0
-15 4 -15 10 0 5 7 7 15 4 8 -4 15 -8 15 -10z m-1012 -72 c2 -12 -1 -22 -7
-22 -6 0 -10 -10 -8 -22 2 -19 -5 -25 -38 -33 -22 -5 -65 -25 -96 -42 -31 -18
-63 -33 -72 -33 -8 0 -25 -11 -38 -25 -26 -27 -54 -32 -62 -12 -3 6 -6 2 -6
-10 -1 -17 -7 -23 -25 -23 -13 0 -35 -10 -50 -21 -23 -18 -31 -20 -52 -10 -15
7 -23 7 -19 1 11 -17 -5 -32 -20 -20 -17 14 -9 37 22 68 13 13 23 27 23 32 0
14 -24 12 -38 -2 -9 -9 -12 -9 -12 0 0 12 45 28 68 24 6 -2 12 2 12 8 0 5 6
10 14 10 7 0 19 7 26 15 7 8 22 15 34 15 12 0 26 4 31 9 6 4 44 21 85 37 41
16 77 32 80 36 9 11 59 28 86 28 13 0 24 5 24 11 0 20 35 4 38 -19z m996 12
c9 -3 16 -11 16 -16 0 -6 -7 -7 -15 -4 -9 3 -18 -1 -21 -9 -4 -8 -11 -15 -16
-15 -6 0 -16 -7 -23 -17 -7 -10 -19 -14 -29 -10 -23 9 -15 31 12 35 15 2 19 8
15 20 -6 15 -5 15 10 3 14 -11 18 -11 23 3 7 18 7 18 28 10z m1027 -59 c3 -55
1 -94 -5 -123 -6 -27 -10 -31 -22 -21 -7 6 -11 16 -7 22 3 5 7 24 8 41 1 17 2
46 3 64 2 31 21 46 23 17z m-1147 -11 c24 -9 19 -22 -13 -38 -26 -14 -30 -14
-35 0 -5 12 -1 14 16 9 18 -6 20 -4 15 14 -6 23 -5 24 17 15z m-87 -86 c-3 -7
-5 -2 -5 12 0 14 2 19 5 13 2 -7 2 -19 0 -25z m-1327 -48 c0 -5 -4 -10 -10
-10 -5 0 -10 5 -10 10 0 6 5 10 10 10 6 0 10 -4 10 -10z m2960 -54 c0 -2 -7
-9 -15 -16 -13 -11 -14 -10 -9 4 5 14 24 23 24 12z m-595 -131 c6 -53 5 -58
-8 -45 -15 15 -29 104 -19 115 12 11 21 -12 27 -70z m-85 -16 c0 -18 -2 -19
-15 -9 -8 7 -15 16 -15 21 0 5 7 9 15 9 9 0 15 -9 15 -21z m3 -72 c-3 -5 -10
-4 -15 1 -6 6 -7 16 -3 22 6 9 9 9 16 -1 4 -7 5 -17 2 -22z m-46 -44 c-4 -3
-2 -12 4 -19 7 -9 4 -14 -13 -19 -66 -19 -63 -19 -48 -2 8 9 21 23 28 32 7 8
18 15 24 15 6 0 8 -3 5 -7z m-97 -19 c0 -8 -5 -12 -10 -9 -6 4 -8 11 -5 16 9
14 15 11 15 -7z m10 -75 c0 -5 -4 -9 -10 -9 -5 0 -10 7 -10 16 0 8 5 12 10 9
6 -3 10 -10 10 -16z m-740 -129 c0 -5 -5 -10 -11 -10 -5 0 -7 5 -4 10 3 6 8
10 11 10 2 0 4 -4 4 -10z m-610 -60 c0 -5 -5 -10 -11 -10 -5 0 -7 5 -4 10 3 6
8 10 11 10 2 0 4 -4 4 -10z m-57 -100 c-7 -8 -22 24 -16 34 4 5 10 1 13 -10 4
-10 6 -21 3 -24z m-43 -4 c0 -8 -7 -16 -15 -20 -20 -7 -19 -26 1 -26 9 0 14
-6 12 -12 -6 -16 -48 -23 -48 -9 0 6 -4 11 -10 11 -5 0 -10 -7 -10 -15 0 -18
-46 -21 -52 -3 -3 8 -15 4 -37 -11 -23 -16 -36 -20 -43 -13 -6 6 -17 8 -26 4
-13 -5 -12 -7 4 -13 18 -7 18 -7 0 -14 -11 -5 -21 -3 -26 5 -7 11 -11 10 -24
-2 -8 -9 -13 -18 -10 -21 3 -3 -4 -3 -15 0 -17 4 -19 8 -10 19 6 8 16 14 21
14 5 0 14 5 21 10 26 22 130 80 146 81 9 0 32 7 51 14 46 18 70 18 70 1z m30
-31 c0 -8 -4 -15 -10 -15 -5 0 -10 7 -10 15 0 8 5 15 10 15 6 0 10 -7 10 -15z
m750 -5 c0 -5 -7 -10 -16 -10 -8 0 -12 5 -9 10 3 6 10 10 16 10 5 0 9 -4 9
-10z m-900 -60 c0 -5 -7 -10 -16 -10 -8 0 -12 5 -9 10 3 6 10 10 16 10 5 0 9
-4 9 -10z m-30 -30 c0 -5 -4 -10 -9 -10 -6 0 -13 5 -16 10 -3 6 1 10 9 10 9 0
16 -4 16 -10z m55 0 c3 -5 1 -10 -4 -10 -6 0 -11 5 -11 10 0 6 2 10 4 10 3 0
8 -4 11 -10z m-421 -40 c-12 -12 -102 -26 -91 -14 9 10 90 33 96 27 3 -2 0 -8
-5 -13z m53 14 c-3 -3 -12 -4 -19 -1 -8 3 -5 6 6 6 11 1 17 -2 13 -5z m2323
-20 c0 -2 -9 -4 -21 -4 -11 0 -18 4 -14 10 5 8 35 3 35 -6z m-685 -64 c3 -5 1
-10 -4 -10 -6 0 -11 5 -11 10 0 6 2 10 4 10 3 0 8 -4 11 -10z m280 -1 c8 -12
-23 -49 -39 -48 -6 0 -6 3 2 6 6 2 12 16 12 29 0 25 14 32 25 13z m-735 -89
c0 -5 -4 -10 -10 -10 -5 0 -10 5 -10 10 0 6 5 10 10 10 6 0 10 -4 10 -10z m80
1 c0 -5 -7 -11 -15 -15 -15 -5 -20 5 -8 17 9 10 23 9 23 -2z m1623 3 c9 -9 -4
-34 -18 -34 -17 0 -27 27 -12 34 17 7 23 7 30 0z m367 -45 c0 -6 -4 -7 -10 -4
-5 3 -10 11 -10 16 0 6 5 7 10 4 6 -3 10 -11 10 -16z m-387 -6 c-7 -2 -19 -2
-25 0 -7 3 -2 5 12 5 14 0 19 -2 13 -5z m-1423 -68 c0 -8 -4 -15 -10 -15 -5 0
-10 7 -10 15 0 8 5 15 10 15 6 0 10 -7 10 -15z m139 -4 c10 -17 8 -18 -13 -8
-14 7 -22 15 -20 19 9 14 23 9 33 -11z m1 -62 c0 -5 -10 -9 -21 -9 -18 0 -19
2 -9 15 12 15 30 12 30 -6z m-2840 -204 c0 -8 -4 -15 -9 -15 -5 0 -11 7 -15
15 -3 9 0 15 9 15 8 0 15 -7 15 -15z m4393 -322 c2 -10 8 -25 11 -34 6 -13 2
-16 -18 -12 -14 3 -26 9 -26 13 0 5 -3 16 -7 26 -4 12 -3 15 5 10 7 -4 12 -2
12 3 0 18 17 12 23 -6z m-11 -90 c-5 -22 -7 -24 -10 -9 -3 15 -6 16 -13 5 -6
-11 -9 -8 -9 9 0 15 6 22 19 22 15 0 17 -5 13 -27z m28 -7 c0 -3 -4 -8 -10
-11 -5 -3 -10 -1 -10 4 0 6 5 11 10 11 6 0 10 -2 10 -4z m46 -47 c3 -6 0 -15
-7 -20 -14 -8 -32 9 -23 23 7 11 22 10 30 -3z m64 1 c0 -5 -4 -10 -10 -10 -5
0 -10 5 -10 10 0 6 5 10 10 10 6 0 10 -4 10 -10z m470 -614 c0 -3 -4 -8 -10
-11 -5 -3 -10 -1 -10 4 0 6 5 11 10 11 6 0 10 -2 10 -4z m65 -126 c3 -5 1 -10
-4 -10 -6 0 -11 5 -11 10 0 6 2 10 4 10 3 0 8 -4 11 -10z m-383 -697 c14 -28
4 -53 -22 -53 -22 0 -30 39 -7 41 9 0 9 2 0 5 -8 4 -9 13 -1 35 5 16 8 36 5
43 -3 8 -3 17 1 21 4 4 8 -10 10 -32 1 -21 8 -48 14 -60z m188 12 c0 -8 -4
-15 -10 -15 -5 0 -10 7 -10 15 0 8 5 15 10 15 6 0 10 -7 10 -15z m-5440 -115
c-77 -24 -130 -33 -130 -21 0 15 93 37 160 39 14 0 2 -8 -30 -18z m1385 -5
c61 -7 121 -16 135 -19 14 -3 68 -13 120 -21 52 -9 124 -22 160 -30 36 -7 88
-17 115 -20 28 -4 84 -17 125 -30 41 -13 109 -34 151 -46 42 -13 87 -32 100
-42 22 -18 24 -25 21 -105 -5 -183 -45 -307 -187 -592 -84 -167 -125 -214
-250 -281 -52 -28 -151 -40 -415 -48 -428 -14 -705 -7 -930 23 -274 36 -422
79 -478 139 -30 31 -37 64 -56 254 -9 84 -23 186 -32 227 -12 62 -13 97 -5
198 13 161 24 210 61 263 39 56 83 71 271 90 79 8 169 17 199 21 91 10 527 31
660 32 69 1 175 -5 235 -13z m4062 -21 c29 -9 55 -19 58 -24 15 -25 25 -178
17 -279 -8 -96 -12 -115 -32 -136 -13 -14 -29 -25 -37 -25 -7 0 -13 -6 -14
-12 -1 -30 -17 34 -28 117 -17 117 -15 112 -50 120 -39 8 -61 39 -61 86 0 20
-9 62 -20 95 -16 50 -17 61 -5 70 18 13 105 7 172 -12z m190 -186 c2 -35 1
-83 -3 -108 -7 -45 -7 -45 -16 -15 -8 30 -9 173 -1 188 10 16 16 -3 20 -65z
m-5689 -11 c-4 -30 -50 -35 -76 -9 -11 11 -26 22 -33 26 -8 3 -4 4 9 2 12 -2
22 0 22 4 0 13 42 17 63 7 11 -5 17 -17 15 -30z m2408 -844 c-7 -7 -26 7 -26
19 0 6 6 6 15 -2 9 -7 13 -15 11 -17z m-2292 -61 c4 -7 -27 -42 -37 -42 -3 0
-1 38 2 48 2 6 30 1 35 -6z m1780 -154 c9 -37 7 -43 -9 -22 -16 21 -19 44 -6
44 5 0 11 -10 15 -22z m-1607 -410 c-3 -8 -6 -5 -6 6 -1 11 2 17 5 13 3 -3 4
-12 1 -19z m148 -15 c-10 -9 -12 -19 -7 -27 15 -18 21 -66 8 -66 -13 0 -41 58
-32 67 3 3 1 12 -5 19 -9 11 -6 16 12 23 31 11 43 4 24 -16z m-123 -43 c14 0
9 -22 -9 -36 -26 -19 -30 -18 -42 18 -10 28 -9 35 6 46 15 11 19 10 27 -8 5
-11 13 -20 18 -20z m278 26 c0 -3 -4 -8 -10 -11 -5 -3 -10 -1 -10 4 0 6 5 11
10 11 6 0 10 -2 10 -4z m-75 -131 c1 -95 -1 -105 -17 -105 -10 0 -18 5 -18 10
0 6 5 10 11 10 8 0 8 4 -1 14 -9 12 -15 110 -11 169 1 4 9 7 19 7 15 0 17 -12
17 -105z m1615 70 c0 -19 -5 -35 -10 -35 -7 0 -8 -13 -4 -35 7 -37 -10 -50
-19 -15 -7 27 -28 25 -26 -2 4 -42 -2 -63 -22 -87 -15 -18 -23 -21 -31 -13 -9
9 -8 12 6 12 9 0 14 5 11 10 -9 15 -35 -7 -35 -29 0 -9 -9 -27 -20 -41 l-20
-25 0 35 c0 20 9 53 20 75 11 22 20 45 20 52 0 6 8 18 18 25 10 7 22 25 25 39
4 14 18 31 32 37 15 7 23 17 20 22 -3 6 3 10 14 10 17 0 21 -6 21 -35z m200
15 c0 -5 -7 -10 -16 -10 -8 0 -12 5 -9 10 3 6 10 10 16 10 5 0 9 -4 9 -10z
m-1960 -70 c0 -44 -6 -49 -26 -22 -21 27 -18 62 6 62 17 0 20 -7 20 -40z m66
-46 c-3 -9 -6 -18 -6 -20 0 -2 -7 -4 -15 -4 -18 0 -20 26 -2 33 23 10 29 7 23
-9z m-146 -24 c0 -19 -11 -26 -23 -14 -8 8 3 34 14 34 5 0 9 -9 9 -20z m1900
0 c0 -11 -7 -20 -15 -20 -18 0 -19 12 -3 28 16 16 18 15 18 -8z m-73 -25 c-4
-34 -17 -44 -17 -13 0 22 7 38 17 38 2 0 2 -11 0 -25z m-1751 -42 c-11 -11
-19 6 -11 24 8 17 8 17 12 0 3 -10 2 -21 -1 -24z m189 -23 c0 -21 -3 -36 -7
-33 -5 2 -8 23 -8 45 0 23 3 38 8 34 4 -4 7 -25 7 -46z m1830 30 c3 -5 1 -10
-4 -10 -6 0 -11 5 -11 10 0 6 2 10 4 10 3 0 8 -4 11 -10z m-265 -20 c0 -5 -2
-10 -4 -10 -3 0 -8 5 -11 10 -3 6 -1 10 4 10 6 0 11 -4 11 -10z m-60 -71 c0
-5 -4 -9 -8 -9 -5 0 -9 7 -9 15 0 8 4 12 9 9 4 -3 8 -9 8 -15z m468 -56 c-14
-18 -27 -16 -35 3 -8 21 16 36 32 21 9 -8 10 -16 3 -24z m-8 -124 c0 -11 -4
-17 -10 -14 -5 3 -10 13 -10 21 0 8 5 14 10 14 6 0 10 -9 10 -21z m-2241 -131
c1 -5 -3 -8 -9 -8 -5 0 -10 12 -9 28 0 24 1 25 9 7 5 -11 9 -23 9 -27z m1631
-4 c0 -8 -5 -12 -10 -9 -6 4 -8 11 -5 16 9 14 15 11 15 -7z"/>
<path d="M3490 6211 c-13 -26 -13 -31 4 -31 7 0 16 11 18 25 6 30 -7 33 -22 6z"/>
<path d="M3446 6165 c-10 -27 -7 -55 7 -55 7 0 12 12 11 30 -1 36 -9 47 -18
25z"/>
<path d="M3480 6138 c0 -19 2 -20 10 -8 13 19 13 30 0 30 -5 0 -10 -10 -10
-22z"/>
<path d="M2093 2652 c-81 -1 -152 -7 -157 -12 -7 -7 15 -10 60 -10 38 0 139
-4 224 -9 85 -6 208 -12 272 -16 64 -3 124 -8 133 -11 9 -4 15 0 15 10 0 9
-12 18 -27 22 -16 3 -35 8 -43 11 -25 9 -320 18 -477 15z"/>
<path d="M1185 2624 c-60 -13 -95 -28 -95 -43 4 -154 21 -336 34 -361 l15 -31
-30 6 c-16 4 -57 18 -91 31 -33 14 -63 23 -66 20 -2 -3 4 -9 14 -13 31 -11 46
-32 39 -53 -5 -17 -2 -20 21 -20 39 0 102 -21 117 -39 10 -12 12 -37 6 -106
-17 -204 -5 -393 26 -424 12 -12 13 4 8 111 -6 132 8 315 32 403 23 85 46 254
52 393 l6 132 -34 -1 c-19 -1 -43 -3 -54 -5z"/>
<path d="M1958 2446 c-20 -8 -52 -21 -70 -29 -18 -8 -52 -20 -76 -26 -77 -21
-212 -160 -212 -218 0 -17 5 -35 11 -38 6 -4 8 -13 5 -21 -8 -21 64 -32 76
-10 9 17 38 22 38 7 0 -8 42 -19 97 -26 13 -2 26 2 30 7 3 7 1 8 -5 4 -7 -4
-12 -1 -12 8 0 8 5 16 12 18 6 2 8 10 4 16 -5 9 -13 9 -27 2 -13 -7 -19 -7
-19 0 0 5 4 10 10 10 5 0 12 17 16 38 9 45 38 99 70 130 27 26 106 62 135 62
24 0 24 -11 -1 -60 -36 -71 -23 -178 28 -237 54 -62 179 -58 278 10 41 28 50
40 66 92 10 33 18 80 16 104 -3 55 10 61 66 32 66 -33 116 -85 116 -120 0 -29
14 -43 22 -22 2 5 15 7 30 4 18 -3 28 -13 31 -31 7 -36 2 -41 -43 -48 -51 -8
-41 -24 14 -24 35 0 45 4 49 20 6 25 25 26 34 3 8 -21 23 -33 41 -33 9 0 9 7
-3 30 -9 17 -20 30 -25 30 -6 0 -10 6 -10 13 0 8 -11 27 -25 43 -14 16 -25 40
-25 53 0 23 1 23 18 8 10 -10 22 -17 27 -17 15 0 -40 37 -87 60 -26 12 -52 28
-59 36 -6 8 -18 14 -26 14 -8 0 -27 9 -42 20 -72 51 -241 90 -416 96 -89 3
-130 0 -157 -10z m391 -138 c5 -13 6 -38 4 -55 -5 -31 -8 -33 -43 -33 -43 0
-56 19 -44 64 11 47 68 63 83 24z m-225 -139 c-3 -5 -10 -7 -15 -3 -5 3 -7 10
-3 15 3 5 10 7 15 3 5 -3 7 -10 3 -15z m-483 -12 c-13 -13 -26 -3 -16 12 3 6
11 8 17 5 6 -4 6 -10 -1 -17z m189 -53 c0 -8 -5 -12 -10 -9 -6 4 -8 11 -5 16
9 14 15 11 15 -7z"/>
<path d="M2601 2144 c0 -11 3 -14 6 -6 3 7 2 16 -1 19 -3 4 -6 -2 -5 -13z"/>
<path d="M1580 2110 c0 -5 5 -10 10 -10 6 0 10 5 10 10 0 6 -4 10 -10 10 -5 0
-10 -4 -10 -10z"/>
<path d="M2720 2084 c0 -8 5 -12 10 -9 6 4 8 11 5 16 -9 14 -15 11 -15 -7z"/>
<path d="M5852 6908 c-7 -7 -12 -18 -12 -26 0 -7 -4 -11 -9 -7 -5 3 -12 1 -16
-4 -3 -6 -11 -8 -18 -5 -7 2 -22 -4 -32 -16 -11 -12 -13 -20 -6 -20 7 0 9 -4
6 -10 -3 -5 -1 -10 5 -10 6 0 13 7 16 15 4 8 10 12 15 9 5 -3 11 1 14 8 3 8
14 14 25 15 18 2 110 50 110 59 0 10 -87 3 -98 -8z m31 -8 c-13 -5 -23 -15
-23 -21 0 -7 -2 -10 -5 -7 -12 11 9 38 29 37 21 0 21 0 -1 -9z"/>
<path d="M6445 6905 c-16 -9 -57 -31 -90 -49 -33 -19 -80 -45 -105 -57 -25
-12 -64 -35 -87 -50 -23 -16 -54 -33 -68 -39 -15 -6 -50 -26 -79 -44 -53 -36
-119 -75 -246 -147 -109 -61 -129 -78 -122 -101 2 -10 10 -17 16 -14 6 2 36
14 66 27 87 35 411 199 440 222 8 7 26 18 40 24 14 6 82 39 152 72 70 34 130
61 133 61 3 0 35 25 70 55 l65 55 -77 0 c-48 -1 -90 -7 -108 -15z"/>
<path d="M5717 6823 c-3 -5 1 -14 8 -20 11 -10 13 -9 12 7 -1 20 -12 26 -20
13z"/>
<path d="M5640 6760 c-8 -5 -10 -10 -5 -10 6 0 17 5 25 10 8 5 11 10 5 10 -5
0 -17 -5 -25 -10z"/>
<path d="M4820 6620 c0 -5 7 -10 16 -10 8 0 12 5 9 10 -3 6 -10 10 -16 10 -5
0 -9 -4 -9 -10z"/>
<path d="M5040 6620 c0 -5 5 -10 11 -10 5 0 7 5 4 10 -3 6 -8 10 -11 10 -2 0
-4 -4 -4 -10z"/>
<path d="M4787 6594 c-11 -11 3 -24 18 -18 8 4 12 10 9 15 -6 11 -18 12 -27 3z"/>
<path d="M4867 6579 c4 -13 8 -18 11 -10 2 7 -1 18 -6 23 -8 8 -9 4 -5 -13z"/>
<path d="M2740 6549 c0 -5 5 -7 10 -4 6 3 10 8 10 11 0 2 -4 4 -10 4 -5 0 -10
-5 -10 -11z"/>
<path d="M5100 6535 c0 -8 2 -15 4 -15 2 0 6 7 10 15 3 8 1 15 -4 15 -6 0 -10
-7 -10 -15z"/>
<path d="M4472 6504 c14 -14 21 -15 30 -6 8 8 9 12 1 12 -6 0 -20 3 -30 6 -17
7 -17 6 -1 -12z"/>
<path d="M4437 6433 c-3 -5 -1 -17 4 -28 7 -17 8 -17 8 8 1 27 -4 34 -12 20z"/>
<path d="M4431 6354 c0 -11 3 -14 6 -6 3 7 2 16 -1 19 -3 4 -6 -2 -5 -13z"/>
<path d="M4530 6251 c0 -11 -3 -21 -7 -23 -9 -4 -53 -108 -53 -125 0 -6 -7
-13 -15 -17 -8 -3 -15 -12 -15 -19 0 -33 -32 -82 -119 -182 -10 -11 -43 -54
-74 -96 -31 -42 -62 -83 -69 -91 -7 -8 -21 -28 -30 -46 l-17 -32 30 22 c16 12
29 25 29 30 0 4 7 8 14 8 8 0 43 28 78 63 64 63 75 76 118 137 13 19 28 38 33
41 5 4 6 16 2 28 -4 15 -1 23 10 27 9 4 14 13 11 21 -3 7 -1 23 4 33 6 11 15
29 20 40 6 11 10 26 10 35 0 8 9 30 20 50 20 35 38 115 26 115 -3 0 -6 -9 -6
-19z"/>
<path d="M4770 6150 c0 -5 5 -10 10 -10 6 0 10 5 10 10 0 6 -4 10 -10 10 -5 0
-10 -4 -10 -10z"/>
<path d="M5520 6100 c20 -13 43 -13 35 0 -3 6 -16 10 -28 10 -18 0 -19 -2 -7
-10z"/>
<path d="M4301 6078 c-1 -10 -10 -23 -20 -30 -10 -6 -17 -18 -14 -25 3 -7 0
-13 -6 -13 -6 0 -11 -11 -11 -24 0 -13 -7 -29 -15 -36 -8 -7 -15 -16 -15 -21
0 -14 28 1 34 19 6 17 28 56 63 109 10 15 13 24 6 20 -6 -4 -14 -1 -16 5 -3 8
-6 6 -6 -4z"/>
<path d="M5540 6040 c0 -5 7 -10 15 -10 8 0 15 5 15 10 0 6 -7 10 -15 10 -8 0
-15 -4 -15 -10z"/>
<path d="M4500 6005 c0 -8 2 -15 4 -15 2 0 6 7 10 15 3 8 1 15 -4 15 -6 0 -10
-7 -10 -15z"/>
<path d="M4490 5951 c0 -6 5 -13 10 -16 6 -3 10 1 10 9 0 9 -4 16 -10 16 -5 0
-10 -4 -10 -9z"/>
<path d="M5416 5901 c-3 -4 6 -6 19 -3 14 2 25 6 25 8 0 8 -39 4 -44 -5z"/>
<path d="M4435 5811 c-3 -5 -1 -12 5 -16 5 -3 10 1 10 9 0 18 -6 21 -15 7z"/>
<path d="M5144 5728 c-4 -7 -3 -8 4 -4 7 4 12 2 12 -3 0 -6 -4 -11 -10 -11 -5
0 -10 -7 -10 -16 0 -14 3 -14 15 -4 16 14 21 50 6 50 -6 0 -13 -5 -17 -12z"/>
<path d="M5180 5731 c0 -5 9 -7 20 -4 11 3 20 7 20 9 0 2 -9 4 -20 4 -11 0
-20 -4 -20 -9z"/>
<path d="M4198 5543 c7 -3 16 -2 19 1 4 3 -2 6 -13 5 -11 0 -14 -3 -6 -6z"/>
<path d="M5827 5543 c-3 -5 -1 -17 4 -28 7 -17 8 -17 8 8 1 27 -4 34 -12 20z"/>
<path d="M4158 5533 c7 -3 16 -2 19 1 4 3 -2 6 -13 5 -11 0 -14 -3 -6 -6z"/>
<path d="M5850 5396 c0 -8 5 -18 10 -21 6 -3 10 3 10 14 0 12 -4 21 -10 21 -5
0 -10 -6 -10 -14z"/>
<path d="M5866 5341 c-4 -6 -2 -19 4 -30 13 -25 13 -41 0 -41 -5 0 -10 7 -10
15 0 8 -7 15 -16 15 -14 0 -14 -3 -3 -17 7 -10 19 -23 27 -30 7 -6 16 -30 19
-52 4 -27 11 -41 20 -41 10 0 13 6 9 16 -3 8 -2 12 4 9 6 -3 10 3 10 13 0 11
-6 22 -14 25 -8 3 -17 27 -21 54 -7 56 -19 81 -29 64z"/>
<path d="M5360 5140 c0 -5 7 -10 15 -10 8 0 15 5 15 10 0 6 -7 10 -15 10 -8 0
-15 -4 -15 -10z"/>
<path d="M5840 5139 c0 -5 5 -7 10 -4 6 3 10 8 10 11 0 2 -4 4 -10 4 -5 0 -10
-5 -10 -11z"/>
<path d="M5920 5140 c0 -5 7 -10 15 -10 8 0 15 5 15 10 0 6 -7 10 -15 10 -8 0
-15 -4 -15 -10z"/>
<path d="M5298 5133 c7 -3 16 -2 19 1 4 3 -2 6 -13 5 -11 0 -14 -3 -6 -6z"/>
<path d="M5620 5130 c0 -5 4 -10 9 -10 5 0 16 -3 25 -6 11 -4 16 -1 16 10 0
10 -9 16 -25 16 -14 0 -25 -4 -25 -10z"/>
<path d="M5688 5118 c4 -4 21 -3 37 2 30 9 30 9 -7 7 -21 0 -34 -5 -30 -9z"/>
<path d="M5600 4902 c0 -12 30 -38 30 -26 1 5 10 -8 21 -28 11 -21 23 -38 27
-38 9 0 62 -77 62 -90 0 -5 6 -13 14 -17 7 -4 17 -21 23 -37 5 -17 15 -31 21
-32 7 -1 8 0 2 3 -5 2 -10 24 -10 48 0 52 -29 145 -47 152 -7 3 -13 11 -13 19
0 8 -5 14 -12 14 -6 0 -19 6 -27 14 -20 18 -91 32 -91 18z"/>
<path d="M5850 4533 c0 -5 5 -15 10 -23 8 -12 10 -11 10 8 0 12 -4 22 -10 22
-5 0 -10 -3 -10 -7z"/>
<path d="M5350 4505 c0 -21 4 -30 12 -28 3 1 9 -15 13 -37 4 -22 10 -42 14
-45 12 -7 6 57 -7 81 -6 12 -9 24 -6 26 3 3 -2 8 -11 11 -9 4 -15 1 -15 -8z"/>
<path d="M5780 4460 c0 -5 7 -10 16 -10 8 0 12 5 9 10 -3 6 -10 10 -16 10 -5
0 -9 -4 -9 -10z"/>
<path d="M5722 4366 c13 -19 25 -33 27 -31 8 9 -22 65 -35 65 -10 0 -8 -9 8
-34z"/>
<path d="M5400 4371 c0 -6 5 -13 10 -16 6 -3 10 1 10 9 0 9 -4 16 -10 16 -5 0
-10 -4 -10 -9z"/>
<path d="M6256 3975 c4 -8 8 -15 10 -15 2 0 4 7 4 15 0 8 -4 15 -10 15 -5 0
-7 -7 -4 -15z"/>
<path d="M6403 3873 c-7 -2 -13 -12 -13 -21 0 -14 2 -14 9 -3 7 11 9 11 14 0
3 -8 6 -4 6 9 1 12 0 22 -1 21 -2 0 -9 -3 -15 -6z"/>
<path d="M5070 3041 c-24 -13 -203 -31 -345 -35 -178 -6 -265 -22 -249 -47 7
-13 241 -2 379 18 61 9 190 18 288 20 152 4 176 7 160 18 -11 8 -55 16 -99 18
-43 3 -79 6 -79 7 0 6 -43 7 -55 1z"/>
<path d="M5342 2999 c7 -5 38 -8 68 -8 66 1 56 6 -23 12 -32 2 -52 0 -45 -4z"/>
<path d="M5784 2643 c-12 -45 15 -340 41 -448 34 -145 40 -266 21 -404 -18
-122 -49 -206 -74 -196 -37 14 -60 15 -87 5 -50 -19 -175 -50 -270 -66 -162
-27 -201 -32 -287 -35 -50 -2 -65 -6 -61 -16 5 -13 -10 -17 -54 -13 -30 2 -30
-16 0 -24 44 -11 314 13 497 43 145 25 283 61 365 96 17 8 42 17 58 20 15 4
27 12 27 17 0 9 -13 9 -71 -4 -22 -5 -13 48 19 107 24 45 26 60 25 145 -1 74
-7 113 -27 175 -15 44 -29 101 -33 126 l-5 46 57 27 c32 14 66 26 75 26 31 0
49 11 43 26 -8 22 -91 16 -104 -8 -6 -11 -21 -18 -40 -18 -26 0 -30 3 -27 23
2 17 9 21 28 19 26 -2 26 -2 38 115 15 142 15 173 2 173 -5 0 -10 11 -10 25 0
25 -23 35 -35 15 -10 -17 -23 -11 -19 8 4 14 -3 17 -40 20 -42 3 -46 1 -52
-25z m103 -215 c-3 -8 -6 -5 -6 6 -1 11 2 17 5 13 3 -3 4 -12 1 -19z"/>
<path d="M4733 2440 c-29 -4 -67 -16 -85 -27 -32 -19 -33 -21 -36 -98 -3 -76
2 -96 41 -187 24 -56 151 -62 254 -12 41 20 54 32 67 64 19 49 21 70 3 46 -16
-22 -28 -17 -80 31 -32 29 -57 86 -43 100 3 3 50 8 104 10 80 4 105 2 133 -12
80 -41 146 -132 135 -188 -9 -46 -32 -75 -66 -82 -33 -7 -37 -14 -18 -33 10
-10 10 -17 -1 -34 -13 -21 -12 -21 51 -13 34 4 75 9 90 10 14 2 31 6 37 9 6 4
23 8 39 10 40 6 152 57 152 71 0 11 -20 25 -135 98 -22 13 -77 61 -123 105
-116 112 -172 135 -342 138 -69 1 -148 -1 -177 -6z m-26 -187 c4 -9 19 -28 35
-42 15 -14 31 -40 34 -57 5 -27 3 -33 -16 -39 -31 -10 -65 22 -47 43 8 11 8
14 0 9 -7 -4 -14 1 -18 12 -3 11 -12 22 -20 25 -15 5 -21 47 -8 59 12 13 34 7
40 -10z m187 -84 c-8 -14 -24 -10 -24 6 0 9 6 12 15 9 8 -4 12 -10 9 -15z
m476 -55 c0 -2 -7 -4 -15 -4 -8 0 -15 4 -15 10 0 5 7 7 15 4 8 -4 15 -8 15
-10z"/>
<path d="M4970 2311 c0 -5 5 -13 10 -16 6 -3 10 -2 10 4 0 5 -4 13 -10 16 -5
3 -10 2 -10 -4z"/>
<path d="M4608 1483 c6 -2 18 -2 25 0 6 3 1 5 -13 5 -14 0 -19 -2 -12 -5z"/>
<path d="M4958 1473 c7 -3 16 -2 19 1 4 3 -2 6 -13 5 -11 0 -14 -3 -6 -6z"/>
<path d="M4820 1420 c0 -6 7 -10 15 -10 8 0 15 2 15 4 0 2 -7 6 -15 10 -8 3
-15 1 -15 -4z"/>
<path d="M1140 1270 c0 -5 4 -10 9 -10 6 0 13 5 16 10 3 6 -1 10 -9 10 -9 0
-16 -4 -16 -10z"/>
<path d="M1141 1214 c0 -11 3 -14 6 -6 3 7 2 16 -1 19 -3 4 -6 -2 -5 -13z"/>
<path d="M1340 1135 c-10 -12 -10 -15 4 -15 9 0 16 7 16 15 0 8 -2 15 -4 15
-2 0 -9 -7 -16 -15z"/>
<path d="M1003 995 c0 -22 2 -30 4 -17 2 12 2 30 0 40 -3 9 -5 -1 -4 -23z"/>
<path d="M1550 925 c0 -17 2 -18 24 -9 18 7 12 24 -10 24 -8 0 -14 -7 -14 -15z"/>
<path d="M1546 865 c4 -8 11 -15 18 -15 6 0 21 -3 34 -6 15 -5 22 -2 22 9 0 8
-13 17 -31 21 -45 9 -49 8 -43 -9z"/>
<path d="M4070 608 c-122 -37 -293 -179 -282 -233 5 -30 33 -56 40 -37 8 25
34 44 45 33 14 -14 88 -14 147 0 24 5 78 12 120 13 41 2 83 7 92 11 34 14 52
153 26 188 -12 15 -91 48 -113 46 -5 -1 -39 -10 -75 -21z m-200 -208 c0 -5 -4
-10 -10 -10 -5 0 -10 5 -10 10 0 6 5 10 10 10 6 0 10 -4 10 -10z"/>
<path d="M2550 530 c0 -11 5 -20 10 -20 6 0 10 9 10 20 0 11 -4 20 -10 20 -5
0 -10 -9 -10 -20z"/>
</g>
</svg>
