<svg id="SvgjsSvg1008" xmlns="http://www.w3.org/2000/svg" width="25" height="25"><path id="SvgjsPath1010" d="M464.5 323c-6.904 0-12.5-5.597-12.5-12.5 0-6.904 5.596-12.5 12.5-12.5 6.903 0 12.5 5.596 12.5 12.5 0 6.903-5.597 12.5-12.5 12.5zm0-23.438c-6.041 0-10.938 4.897-10.938 10.938 0 6.04 4.897 10.937 10.938 10.937 6.04 0 10.937-4.897 10.937-10.937 0-6.041-4.897-10.938-10.937-10.938zm4.466 7.585a.787.787 0 1 0-1.113-1.114l-3.358 3.358-3.31-3.311a.782.782 0 0 0-1.105 1.105l3.31 3.31-3.332 3.333a.787.787 0 1 0 1.113 1.114l3.333-3.333 3.31 3.31a.782.782 0 0 0 1.105-1.105l-3.31-3.31z" fill="#fff" transform="translate(-452 -298)"/></svg>