<svg id="SvgjsSvg1000" xmlns="http://www.w3.org/2000/svg" width="32" height="24"><path id="SvgjsPath1007" d="M422 322c3.436-1.492 7-5.65 7-9.5 0-5.055-3.952-9.177-8.933-9.472-1.468-2.976-4.524-5.028-8.067-5.028-4.75 0-8.63 3.681-8.967 8.345-3.491.995-6.033 4.044-6.033 7.655 0 4.259 3.539 7.731 8 7.976zm-17-2s-6.038-.62-6-6c.021-3.036 2.687-5.818 6-6 0-4.142 2.65-8 7-8 3.432 0 5.723 2.095 6.538 5.013 4.955-.216 8.305 3.704 8.462 6.987.134 2.827-2.321 6.479-5 8zm2.736-9.612l4.264 4.244v-9.617a1 1 0 1 1 2 0v9.649l4.295-4.276a1.009 1.009 0 0 1 1.422 0 .999.999 0 0 1 0 1.417l-5.94 5.914a.996.996 0 0 1-.762.283.995.995 0 0 1-.761-.283l-5.941-5.914a1 1 0 0 1 0-1.417 1.01 1.01 0 0 1 1.423 0z" fill="#fff" transform="translate(-397 -298)"/></svg>