<svg id="SvgjsSvg1008" xmlns="http://www.w3.org/2000/svg" version="1.1" xmlns:xlink="http://www.w3.org/1999/xlink" xmlns:svgjs="http://svgjs.com/svgjs" width="25" height="25"><defs id="SvgjsDefs1009"></defs><path id="SvgjsPath1010" d="M464.5 323C457.596 323 452 317.403 452 310.5C452 303.596 457.596 298 464.5 298C471.403 298 477 303.596 477 310.5C477 317.403 471.403 323 464.5 323ZM464.5 299.562C458.459 299.562 453.562 304.459 453.562 310.5C453.562 316.54 458.459 321.437 464.5 321.437C470.54 321.437 475.437 316.54 475.437 310.5C475.437 304.459 470.54 299.562 464.5 299.562ZM468.966 307.147C469.274 306.839 469.274 306.341 468.966 306.033C468.659 305.726 468.16 305.726 467.853 306.033L464.495 309.391L461.185 306.08000000000004C460.88 305.77500000000003 460.385 305.77500000000003 460.08 306.08000000000004C459.775 306.38500000000005 459.775 306.88000000000005 460.08 307.18500000000006L463.39 310.49500000000006L460.058 313.8280000000001C459.75 314.1360000000001 459.75 314.63400000000007 460.058 314.94200000000006C460.365 315.2490000000001 460.864 315.2490000000001 461.171 314.94200000000006L464.504 311.60900000000004L467.814 314.91900000000004C468.119 315.22400000000005 468.61400000000003 315.22400000000005 468.91900000000004 314.91900000000004C469.22400000000005 314.61400000000003 469.22400000000005 314.119 468.91900000000004 313.814L465.60900000000004 310.504Z " fill="#ffffff" transform="matrix(1,0,0,1,-452,-298)"></path></svg>