<svg id="SvgjsSvg1017" xmlns="http://www.w3.org/2000/svg" version="1.1" xmlns:xlink="http://www.w3.org/1999/xlink" xmlns:svgjs="http://svgjs.com/svgjs" width="11" height="11"><defs id="SvgjsDefs1018"></defs><path id="SvgjsPath1019" d="M1029.61 774.504L1032.9199999999998 777.814C1033.2199999999998 778.1189999999999 1033.2199999999998 778.6139999999999 1032.9199999999998 778.919C1032.61 779.2239999999999 1032.12 779.2239999999999 1031.81 778.919L1028.5 775.609L1025.17 778.942C1024.8600000000001 779.249 1024.3700000000001 779.249 1024.0600000000002 778.942C1023.7500000000002 778.634 1023.7500000000002 778.136 1024.0600000000002 777.828L1027.39 774.496L1024.0800000000002 771.185C1023.7800000000002 770.88 1023.7800000000002 770.385 1024.0800000000002 770.0799999999999C1024.39 769.775 1024.88 769.775 1025.19 770.0799999999999L1028.5 773.391L1031.85 770.033C1032.1599999999999 769.726 1032.6599999999999 769.726 1032.9699999999998 770.033C1033.2699999999998 770.341 1033.2699999999998 770.839 1032.9699999999998 771.147Z " fill="#5ec289" transform="matrix(1,0,0,1,-1023,-769)"></path></svg>