<svg id="SvgjsSvg1011" xmlns="http://www.w3.org/2000/svg" version="1.1" xmlns:xlink="http://www.w3.org/1999/xlink" xmlns:svgjs="http://svgjs.com/svgjs" width="11" height="11"><defs id="SvgjsDefs1012"></defs><path id="SvgjsPath1013" d="M850.609 537.504L853.919 540.814C854.2239999999999 541.12 854.2239999999999 541.6139999999999 853.919 541.919C853.614 542.2239999999999 853.119 542.2239999999999 852.814 541.919L849.504 538.609L846.171 541.942C845.864 542.249 845.365 542.249 845.058 541.942C844.75 541.634 844.75 541.136 845.058 540.828L848.39 537.496L845.08 534.185C844.7750000000001 533.88 844.7750000000001 533.385 845.08 533.0799999999999C845.385 532.775 845.88 532.775 846.1850000000001 533.0799999999999L849.495 536.391L852.853 533.033C853.16 532.726 853.659 532.726 853.966 533.033C854.274 533.341 854.274 533.839 853.966 534.147Z " fill="#5ec289" transform="matrix(1,0,0,1,-844,-532)"></path></svg>