<svg id="SvgjsSvg1000" xmlns="http://www.w3.org/2000/svg" version="1.1" xmlns:xlink="http://www.w3.org/1999/xlink" xmlns:svgjs="http://svgjs.com/svgjs" width="32" height="24"><defs id="SvgjsDefs1001"></defs><path id="SvgjsPath1007" d="M422 322C425.436 320.508 429 316.35 429 312.5C429 307.445 425.048 303.323 420.067 303.028C418.599 300.052 415.543 298 412 298C407.25 298 403.37 301.681 403.033 306.345C399.54200000000003 307.34000000000003 397 310.389 397 314C397 318.259 400.539 321.731 405 321.976ZM405 320C405 320 398.962 319.38 399 314C399.021 310.964 401.687 308.182 405 308C405 303.858 407.65 300 412 300C415.432 300 417.723 302.095 418.538 305.013C423.493 304.79699999999997 426.843 308.717 427 312C427.134 314.827 424.679 318.479 422 320ZM407.736 310.388L412 314.63199999999995L412 305.01499999999993C412 304.46199999999993 412.447 304.0129999999999 413 304.0129999999999C413.552 304.0129999999999 414 304.46199999999993 414 305.01499999999993L414 314.66399999999993L418.295 310.3879999999999C418.688 309.9969999999999 419.324 309.9969999999999 419.71700000000004 310.3879999999999C420.11 310.77899999999994 420.11 311.41399999999993 419.71700000000004 311.8049999999999L413.77700000000004 317.7189999999999C413.56800000000004 317.9269999999999 413.29 318.0159999999999 413.01500000000004 318.0019999999999C412.74100000000004 318.0159999999999 412.463 317.9269999999999 412.254 317.7189999999999L406.31300000000005 311.8049999999999C405.92100000000005 311.4139999999999 405.92100000000005 310.7789999999999 406.31300000000005 310.3879999999999C406.706 309.9969999999999 407.343 309.9969999999999 407.73600000000005 310.3879999999999Z " fill="#ffffff" transform="matrix(1,0,0,1,-397,-298)"></path></svg>